Coordinates
version=1
nRows=17
nColumns=40
inDegrees=yes

Units are S.I. units (second, meters, Newtons, ...)
Angles are in degrees.

endheader
time	pelvis_tilt	pelvis_list	pelvis_rotation	pelvis_tx	pelvis_ty	pelvis_tz	hip_flexion_r	hip_adduction_r	hip_rotation_r	knee_angle_r	knee_angle_r_beta	ankle_angle_r	subtalar_angle_r	mtp_angle_r	hip_flexion_l	hip_adduction_l	hip_rotation_l	knee_angle_l	knee_angle_l_beta	ankle_angle_l	subtalar_angle_l	mtp_angle_l	lumbar_extension	lumbar_bending	lumbar_rotation	arm_flex_r	arm_add_r	arm_rot_r	elbow_flex_r	pro_sup_r	wrist_flex_r	wrist_dev_r	arm_flex_l	arm_add_l	arm_rot_l	elbow_flex_l	pro_sup_l	wrist_flex_l	wrist_dev_l
     32.66750000	     -6.05674224	     -4.36057674	     -3.45359040	      0.99185575	      0.91506287	      0.47249780	      4.36598606	     -3.39893687	    -11.03400321	     35.57619493	     35.57619493	     10.65089142	     -7.96049167	    -16.23266675	     30.19671305	     -7.14628881	     -3.69389202	     28.17738705	     28.17738705	      6.64085619	    -16.45569703	      6.68958343	    -10.48516981	      5.05953708	      3.93449135	     34.47067601	    -12.77057991	      4.64221084	    114.26528007	     43.94064632	      0.00000000	      0.00000000	     -9.73619262	     -9.22894525	     -0.95690776	     30.71362399	     45.38496208	      0.00000000	      0.00000000
     32.67914286	     -6.04065614	     -4.16974225	     -3.55371545	      0.99233602	      0.91655835	      0.46988105	      6.18447670	     -4.23071087	    -10.73860785	     39.47070956	     39.47070956	      8.30889649	    -10.03039985	    -16.45558023	     29.34784423	     -6.78803466	     -3.97884187	     27.86239412	     27.86239412	      7.19853754	    -16.32943874	      6.47426060	    -10.50024931	      4.93226476	      3.62988321	     33.41421375	    -12.90996732	      4.72733890	    114.44888932	     43.93798294	      0.00000000	      0.00000000	     -8.74951727	     -9.34637645	     -0.96597845	     31.18604669	     45.40989448	      0.00000000	      0.00000000
     32.69078571	     -5.95453256	     -3.98889219	     -3.59712653	      0.99268084	      0.91804058	      0.46734172	      8.03151614	     -5.03789813	    -10.48604578	     43.38362189	     43.38362189	      5.71836712	    -12.17937640	    -16.25393303	     28.47093918	     -6.42182377	     -4.24333908	     27.59345191	     27.59345191	      7.67481196	    -16.22519127	      6.27128548	    -10.59821471	      4.83208518	      3.32606733	     32.24348580	    -13.05407621	      4.84603884	    114.48819121	     43.93465708	      0.00000000	      0.00000000	     -7.60228103	     -9.50838752	     -1.01343747	     31.76473398	     45.43982871	      0.00000000	      0.00000000
     32.70242857	     -6.03878821	     -3.90468015	     -3.70063589	      0.99276606	      0.91923482	      0.46514201	     10.19651987	     -5.55969248	     -9.94983529	     47.25181959	     47.25181959	      2.85413391	    -14.76641954	    -15.55665317	     27.71934486	     -6.17451102	     -4.43672114	     27.19139414	     27.19139414	      8.12086824	    -16.16816431	      6.06631241	    -10.53647932	      4.77935036	      3.16771921	     30.78327883	    -13.48213839	      4.83291866	    114.53095519	     43.93653119	      0.00000000	      0.00000000	     -6.51660787	     -9.69600377	     -1.10767282	     32.50864980	     45.47676898	      0.00000000	      0.00000000
     32.71407143	     -5.98523910	     -3.81856347	     -3.72979462	      0.99276996	      0.92047947	      0.46293169	     12.22403773	     -6.12624219	     -9.60395143	     50.95346415	     50.95346415	      0.12740752	    -16.76499479	    -14.40504522	     26.88469765	     -5.90847376	     -4.61138724	     26.87313834	     26.87313834	      8.51072704	    -16.08335293	      5.86830449	    -10.64409956	      4.76656405	      2.95913342	     29.30204887	    -13.84855248	      4.83070881	    114.37901869	     43.94226693	      0.00000000	      0.00000000	     -5.29529242	     -9.91895244	     -1.20781708	     33.33891493	     45.51508366	      0.00000000	      0.00000000
     32.72571429	     -6.01907778	     -3.76216126	     -3.79816657	      0.99261823	      0.92150486	      0.46091525	     14.42590826	     -6.61582008	     -9.22899621	     54.54421171	     54.54421171	     -2.13562443	    -18.02253959	    -12.36665652	     26.13095409	     -5.68114734	     -4.74714473	     26.50766581	     26.50766581	      8.87557480	    -16.06328683	      5.66058887	    -10.65458787	      4.75027172	      2.91003268	     27.54783757	    -14.43200393	      4.67216221	    114.05204079	     43.95927467	      0.00000000	      0.00000000	     -4.10892568	    -10.14541258	     -1.33497683	     34.40281175	     45.55799826	      0.00000000	      0.00000000
     32.73735714	     -5.95613323	     -3.88238423	     -3.79283440	      0.99236146	      0.92255281	      0.45916993	     16.75939875	     -6.65132020	     -8.60994526	     58.39589257	     58.39589257	     -1.61718212	    -17.98164896	     -2.78751432	     25.34441714	     -5.62818151	     -4.70991350	     26.23731295	     26.23731295	      9.08999085	    -16.07951999	      5.11960076	    -10.86866029	      4.92181179	      3.42246327	     25.14330565	    -15.14059902	      3.09550184	    114.46062187	     44.03440908	      0.00000000	      0.00000000	     -2.95746580	    -10.48065762	     -1.25872422	     36.96174981	     45.61352258	      0.00000000	      0.00000000
     32.74900000	     -5.87504751	     -3.77743333	     -3.78014346	      0.99205943	      0.92342908	      0.45724041	     18.77331793	     -7.12816284	     -8.29432029	     61.34846339	     61.34846339	     -3.28730754	    -18.55508152	     -1.78265444	     24.55310052	     -5.33974814	     -4.82012819	     25.97566930	     25.97566930	      9.43452900	    -15.98849439	      4.99603202	    -10.99507327	      4.94322008	      3.04512309	     23.47958218	    -15.40163186	      3.30937494	    113.39921169	     44.05934294	      0.00000000	      0.00000000	     -1.66255549	    -10.76453572	     -1.26023577	     37.67953809	     45.64014543	      0.00000000	      0.00000000
     32.76064286	     -5.82349749	     -3.89098428	     -3.80169574	      0.99165439	      0.92434906	      0.45578906	     20.95380534	     -7.04287257	     -7.71641639	     64.22416512	     64.22416512	     -2.95974880	    -18.52084072	      4.65734273	     23.80295477	     -5.29573221	     -4.75340718	     25.74494318	     25.74494318	      9.79288906	    -16.05323379	      4.77090827	    -11.12971972	      5.04173446	      2.97726214	     21.56270674	    -15.68181567	      2.30295773	    111.75543291	     44.17955004	      0.00000000	      0.00000000	     -0.65460468	    -11.23822085	     -0.70926024	     39.97321798	     45.65134866	      0.00000000	      0.00000000
     32.77228571	     -5.73961228	     -3.93120271	     -3.83393551	      0.99123402	      0.92517864	      0.45434610	     22.90023962	     -7.07267095	     -7.25904620	     66.46366998	     66.46366998	     -3.43114265	    -18.64772287	      6.54404875	     23.03285481	     -5.19520453	     -4.78785642	     25.53659019	     25.53659019	     10.17646723	    -16.01534459	      4.62539734	    -11.30127898	      5.13571482	      2.83768708	     19.66382282	    -16.02567648	      1.93745195	    109.97566735	     44.28073629	      0.00000000	      0.00000000	      0.52708920	    -11.69277772	     -0.26232380	     41.68094491	     45.68530995	      0.00000000	      0.00000000
     32.78392857	     -5.63522015	     -4.01163863	     -3.88834848	      0.99080333	      0.92602274	      0.45307416	     24.69734157	     -6.98796952	     -6.83574075	     68.20843387	     68.20843387	     -3.88905154	    -18.74816255	      6.92013699	     22.23613976	     -5.14867092	     -4.80959254	     25.33014828	     25.33014828	     10.58738892	    -15.97792589	      4.52549509	    -11.49406505	      5.26080860	      2.82237844	     17.72028499	    -16.48380281	      1.55666422	    107.81866893	     44.36521308	      0.00000000	      0.00000000	      1.92349643	    -11.98222855	     -0.28539857	     43.08558237	     45.73305743	      0.00000000	      0.00000000
     32.79557143	     -5.55710642	     -4.10322682	     -3.97190796	      0.99032778	      0.92682015	      0.45204111	     26.47712111	     -6.79135130	     -6.40615807	     69.56469866	     69.56469866	     -3.93877481	    -18.77208011	      7.35861526	     21.44299726	     -5.13740246	     -4.86547911	     25.08287506	     25.08287506	     11.01060533	    -15.91155941	      4.40932320	    -11.67276766	      5.36945819	      2.72788063	     15.81415904	    -16.44339903	      0.65691537	    105.17981024	     44.48600442	      0.00000000	      0.00000000	      3.06131457	    -12.41170436	     -0.19741461	     45.04027874	     45.78246225	      0.00000000	      0.00000000
     32.80721429	     -5.49496726	     -4.16155494	     -4.11908469	      0.98987134	      0.92759483	      0.45113673	     28.19522837	     -6.59623955	     -6.00753046	     70.48774122	     70.48774122	     -3.85472016	    -18.74441223	      7.27753557	     20.64645742	     -5.11918511	     -5.01250344	     24.80704534	     24.80704534	     11.39395693	    -15.82639373	      4.31784599	    -11.83740251	      5.46566919	      2.83843086	     13.75062945	    -16.88480657	      0.36150297	    102.65772417	     44.57148524	      0.00000000	      0.00000000	      4.48066608	    -12.63573009	     -0.29401280	     46.50444346	     45.83074691	      0.00000000	      0.00000000
     32.81885714	     -5.37018695	     -4.29486381	     -4.29707933	      0.98945033	      0.92847215	      0.45051112	     29.71350975	     -6.26218905	     -5.68656822	     70.90972156	     70.90972156	     -3.58170674	    -18.70571314	      7.24108915	     19.75724086	     -5.19714914	     -5.15489572	     24.52039583	     24.52039583	     11.84938807	    -15.73407316	      4.14646487	    -12.05544217	      5.56038118	      2.81268113	     12.14262003	    -16.54235144	     -1.05089622	     98.79653423	     44.74222349	      0.00000000	      0.00000000	      5.51318564	    -13.08825143	     -0.21275872	     48.94354554	     45.88434825	      0.00000000	      0.00000000
     32.83050000	     -5.29140356	     -4.36275143	     -4.52714229	      0.98899121	      0.92926899	      0.44996674	     31.21901094	     -6.01145931	     -5.43875989	     70.93525058	     70.93525058	     -3.13744973	    -18.67438614	      7.05651962	     18.86456273	     -5.22517568	     -5.42167196	     24.12919570	     24.12919570	     12.16455239	    -15.58879060	      4.06555245	    -12.29085892	      5.64401402	      3.10346146	     10.29317914	    -16.81461253	     -1.60192082	     95.53198190	     44.85994353	      0.00000000	      0.00000000	      6.82583391	    -13.33498354	     -0.32360816	     50.84354700	     45.94233458	      0.00000000	      0.00000000
     32.84214286	     -5.19147321	     -4.45581349	     -4.80491278	      0.98859199	      0.93011550	      0.44961773	     32.56174977	     -5.72321722	     -5.27767777	     70.46660207	     70.46660207	     -2.66780718	    -18.61442702	      6.91210857	     17.90853301	     -5.28879699	     -5.70888603	     23.69095143	     23.69095143	     12.51089091	    -15.42789989	      3.94466233	    -12.54525383	      5.71767958	      3.34379078	      8.58934012	    -16.79611833	     -2.39666373	     91.76925075	     45.00061291	      0.00000000	      0.00000000	      8.05035668	    -13.58667330	     -0.45145512	     52.91449332	     46.00241768	      0.00000000	      0.00000000
     32.85378571	     -5.09953509	     -4.53260662	     -5.06874110	      0.98820289	      0.93090765	      0.44944188	     33.76344100	     -5.45454696	     -5.22118705	     69.52385854	     69.52385854	     -2.15997657	    -18.57587582	      6.80906159	     16.94464759	     -5.34036157	     -6.02030576	     23.20997094	     23.20997094	     12.76214244	    -15.29522410	      3.54959500	    -12.75565031	      5.72836263	      2.70089347	      8.11104557	    -15.71013304	     -3.55008461	     86.32239548	     45.21122938	      0.00000000	      0.00000000	      8.07038169	    -14.43892856	     -0.72674217	     56.58320429	     46.14054410	      0.00000000	      0.00000000
